<?xml version="1.0" standalone="no"?>
<!DOCTYPE svg PUBLIC "-//W3C//DTD SVG 20010904//EN"
 "http://www.w3.org/TR/2001/REC-SVG-20010904/DTD/svg10.dtd">
<svg version="1.0" xmlns="http://www.w3.org/2000/svg"
 width="984.000000pt" height="984.000000pt" viewBox="0 0 984.000000 984.000000"
 preserveAspectRatio="xMidYMid meet">
<metadata>
Created by potrace 1.14, written by Peter Selinger 2001-2017
</metadata>
<g transform="translate(0.000000,984.000000) scale(0.100000,-0.100000)"
fill="#000000" stroke="none">
<path d="M1540 8767 c-3 -3 -50 -7 -105 -11 -133 -9 -255 -23 -263 -31 -2 -2
-5 -321 -7 -708 -1 -388 -5 -710 -9 -715 -3 -6 -2 -12 3 -14 5 -2 6 -21 2 -43
-3 -22 -4 -56 -1 -75 3 -19 3 -49 -1 -66 -3 -18 -3 -38 2 -45 4 -7 5 -17 2
-21 -2 -5 -6 -345 -8 -756 -2 -411 -7 -1199 -10 -1752 -12 -1939 -12 -1794 4
-1806 8 -6 28 -8 45 -5 35 8 305 6 471 -3 212 -11 246 -14 393 -32 26 -3 67
-7 91 -10 24 -2 51 -6 60 -8 9 -3 39 -8 66 -11 54 -6 90 -12 90 -15 0 -1 16
-4 35 -6 58 -6 188 -32 305 -60 33 -8 71 -18 85 -21 14 -3 33 -6 43 -7 9 0 17
-4 17 -8 0 -4 3 -7 8 -6 7 2 91 -18 122 -29 8 -4 20 -7 26 -8 34 -8 284 -88
311 -101 17 -8 33 -14 36 -14 3 0 18 -5 34 -12 15 -6 34 -12 41 -14 8 -1 28
-9 45 -17 18 -9 56 -25 86 -37 61 -24 103 -42 246 -108 55 -26 102 -49 105
-52 3 -3 48 -27 100 -54 52 -27 120 -64 151 -82 31 -19 62 -34 68 -34 6 0 11
-4 11 -10 0 -5 7 -10 15 -10 8 0 15 -4 15 -10 0 -5 5 -10 10 -10 6 0 44 -22
86 -50 41 -27 79 -50 84 -50 5 0 10 -3 12 -7 3 -9 158 -116 159 -111 0 4 0
5561 0 5614 -1 25 -8 49 -20 63 -10 12 -24 35 -31 51 -7 17 -16 30 -21 30 -5
0 -9 5 -9 11 0 12 -109 162 -122 167 -4 2 -8 8 -8 13 0 17 -159 189 -257 279
-99 91 -224 189 -313 246 -25 16 -47 31 -50 35 -3 3 -12 9 -20 13 -24 11 -57
31 -71 43 -19 15 -290 153 -359 182 -30 12 -82 33 -115 46 -85 33 -99 38 -110
41 -5 1 -43 14 -82 28 -40 13 -73 22 -73 19 0 -3 -6 -1 -12 4 -14 11 -118 39
-130 35 -5 -1 -8 2 -8 6 0 4 -14 9 -32 10 -17 2 -37 7 -43 12 -7 5 -14 8 -17
5 -2 -3 -29 1 -59 9 -30 8 -76 17 -104 21 -27 5 -54 9 -60 11 -23 6 -223 35
-231 33 -5 -1 -11 -1 -14 0 -8 3 -67 11 -133 17 -80 7 -571 16 -577 11z"/>
<path d="M8048 8735 c-2 -2 -52 -6 -113 -9 -175 -10 -274 -19 -335 -30 -14 -3
-45 -7 -70 -10 -25 -3 -67 -10 -95 -15 -27 -5 -53 -7 -57 -5 -3 2 -9 0 -13 -6
-4 -6 -10 -8 -15 -5 -5 3 -19 1 -33 -4 -14 -5 -45 -13 -68 -16 -24 -3 -62 -11
-84 -17 -22 -5 -47 -12 -55 -14 -101 -23 -386 -112 -470 -147 -14 -6 -27 -11
-30 -12 -26 -9 -123 -51 -207 -91 -40 -19 -77 -34 -82 -34 -5 0 -11 -3 -13 -7
-1 -5 -38 -26 -80 -48 -43 -22 -78 -43 -78 -47 0 -5 -6 -8 -12 -8 -7 0 -33
-14 -58 -31 -25 -16 -55 -34 -67 -39 -13 -5 -23 -14 -23 -20 0 -5 -5 -10 -10
-10 -6 0 -45 -26 -88 -57 -97 -73 -107 -81 -151 -120 -20 -18 -47 -42 -61 -53
-64 -55 -138 -130 -244 -250 -13 -14 -53 -65 -89 -115 -37 -49 -70 -94 -75
-100 -4 -5 -16 -23 -26 -40 -19 -29 -19 -93 -19 -2870 0 -1562 2 -2842 5
-2845 3 -3 48 22 99 56 52 33 157 99 234 145 77 46 142 87 143 92 2 4 8 7 12
7 5 0 71 34 147 76 115 64 472 245 481 244 2 0 48 19 110 47 20 9 39 17 42 18
3 1 16 6 30 12 14 6 50 21 80 32 30 12 64 26 75 30 32 15 160 61 167 61 4 0
19 5 35 12 15 6 31 12 36 13 4 2 8 3 10 5 1 1 10 3 20 6 30 7 41 11 58 18 21
9 224 65 264 72 17 3 38 10 48 15 9 5 17 8 17 5 0 -3 15 0 33 5 17 5 44 12 60
14 15 3 60 12 100 21 39 8 88 17 107 20 19 3 46 7 60 10 14 2 43 6 65 9 22 3
51 7 65 10 14 3 52 7 85 10 33 3 85 8 115 12 30 3 197 7 370 7 l314 2 1 2982
c0 1640 -2 2983 -5 2983 -6 2 -44 6 -135 14 -61 6 -522 14 -527 10z"/>
<path d="M4 7361 c-6 -6 -5 -6281 1 -6281 3 0 41 9 84 20 43 11 88 23 100 25
11 3 30 7 41 10 41 10 286 65 315 71 11 2 31 6 45 9 14 3 36 7 50 10 14 3 36
7 50 10 14 3 36 7 50 10 14 3 36 7 50 10 14 3 42 8 64 11 21 3 46 7 55 9 64
12 109 19 124 21 9 1 18 2 20 3 2 2 27 6 102 16 22 3 51 7 65 9 14 2 48 7 75
10 28 4 66 9 86 12 49 6 157 18 274 28 33 3 85 8 115 11 251 24 944 24 1150 0
33 -3 136 -14 205 -20 48 -5 127 -15 163 -21 17 -3 49 -7 69 -10 20 -2 50 -7
67 -10 17 -3 42 -7 56 -9 45 -6 179 -32 255 -49 6 -1 26 -6 45 -10 75 -16 207
-47 240 -56 19 -5 91 -26 160 -46 69 -19 133 -37 142 -39 9 -2 26 -9 37 -15
12 -6 21 -8 21 -5 0 3 14 -1 30 -10 45 -23 36 -5 -17 35 -26 19 -51 40 -57 45
-6 6 -24 19 -41 29 -16 11 -34 23 -40 28 -28 24 -167 118 -174 118 -5 0 -11 4
-13 8 -3 7 -33 27 -153 99 -11 7 -27 15 -35 19 -8 4 -32 18 -53 31 -51 32
-327 173 -327 167 0 -2 -10 2 -22 10 -31 19 -267 116 -284 116 -8 0 -14 4 -14
8 0 5 -6 9 -12 9 -7 1 -51 14 -98 31 -47 16 -132 44 -190 61 -58 17 -120 36
-138 42 -18 6 -45 13 -60 16 -42 8 -57 11 -57 13 0 1 -9 3 -20 5 -11 2 -51 11
-90 19 -38 9 -79 18 -90 20 -143 27 -196 37 -221 40 -16 2 -49 6 -74 10 -25 4
-63 9 -85 11 -22 2 -58 6 -80 9 -195 28 -674 39 -935 21 -219 -14 -258 -12
-320 17 -69 32 -120 81 -151 144 l-24 49 2 815 c1 448 4 1328 8 1955 4 627 8
1396 9 1710 l1 569 -273 1 c-151 0 -276 -2 -278 -4z"/>
<path d="M9330 7360 c-4 -3 -8 -1130 -8 -2505 l0 -2500 -21 -60 c-19 -53 -56
-107 -88 -128 -7 -4 -18 -13 -25 -20 -37 -37 -177 -64 -240 -46 -15 4 -47 9
-70 10 -24 1 -47 5 -52 7 -5 3 -32 6 -60 8 -28 1 -91 6 -141 10 -153 13 -487
7 -625 -11 -19 -3 -57 -7 -85 -10 -27 -3 -57 -8 -65 -10 -8 -2 -40 -7 -70 -10
-30 -4 -57 -8 -60 -10 -3 -2 -26 -6 -50 -10 -59 -9 -232 -50 -345 -82 -49 -14
-97 -27 -105 -28 -8 -2 -16 -4 -17 -5 -2 -2 -6 -3 -10 -5 -5 -1 -15 -4 -23 -8
-8 -3 -40 -13 -70 -22 -30 -9 -64 -20 -75 -25 -11 -5 -81 -32 -155 -60 -74
-28 -148 -57 -165 -64 -16 -8 -52 -24 -80 -36 -86 -38 -335 -162 -419 -208
-45 -25 -97 -53 -116 -63 -19 -11 -42 -23 -50 -29 -28 -17 -241 -145 -258
-155 -10 -5 -68 -43 -130 -83 -104 -68 -136 -94 -94 -77 22 9 319 94 352 100
14 3 38 7 54 10 16 4 33 8 38 11 5 3 23 8 41 11 60 9 72 11 72 13 0 1 9 3 20
5 20 4 85 17 95 20 3 0 27 4 53 9 27 4 59 9 70 12 12 2 40 6 62 9 22 4 49 8
60 10 11 1 45 6 75 10 30 4 66 9 80 11 14 3 48 7 75 9 28 3 73 8 100 11 28 3
77 8 110 10 33 2 87 7 120 10 104 9 806 11 811 2 3 -4 13 -4 23 2 10 5 21 6
25 2 4 -3 24 -7 44 -8 73 -3 237 -15 262 -19 14 -2 57 -7 95 -10 87 -8 118
-11 175 -19 25 -3 68 -8 95 -12 73 -9 92 -12 170 -24 39 -6 84 -13 100 -15 17
-3 41 -7 55 -10 14 -3 41 -8 60 -11 19 -3 69 -12 110 -20 41 -9 84 -17 95 -18
11 -2 45 -8 75 -15 30 -6 65 -13 78 -16 13 -2 31 -6 40 -9 9 -3 33 -8 52 -11
19 -3 51 -10 70 -15 19 -5 46 -11 60 -14 14 -3 54 -13 90 -22 36 -9 72 -17 80
-18 9 -1 21 -5 28 -10 6 -4 12 -5 12 -2 0 3 10 2 23 -3 12 -4 34 -11 50 -15
l27 -6 -2 3142 -3 3142 -248 1 c-137 0 -253 -2 -257 -5z"/>
</g>
</svg>
