<?xml version="1.0" encoding="UTF-8" standalone="no"?>
<!-- Created with Inkscape (http://www.inkscape.org/) -->

<svg
   width="3.9158478mm"
   height="4.6259766mm"
   viewBox="0 0 3.9158478 4.6259766"
   version="1.1"
   id="svg5"
   xml:space="preserve"
   inkscape:version="1.2.2 (732a01da63, 2022-12-09)"
   sodipodi:docname="user_gray.svg"
   xmlns:inkscape="http://www.inkscape.org/namespaces/inkscape"
   xmlns:sodipodi="http://sodipodi.sourceforge.net/DTD/sodipodi-0.dtd"
   xmlns="http://www.w3.org/2000/svg"
   xmlns:svg="http://www.w3.org/2000/svg"><sodipodi:namedview
     id="namedview7"
     pagecolor="#ffffff"
     bordercolor="#000000"
     borderopacity="0.25"
     inkscape:showpageshadow="2"
     inkscape:pageopacity="0.0"
     inkscape:pagecheckerboard="0"
     inkscape:deskcolor="#d1d1d1"
     inkscape:document-units="mm"
     showgrid="false"
     inkscape:zoom="19.02887"
     inkscape:cx="279.1285"
     inkscape:cy="610.91383"
     inkscape:window-width="1680"
     inkscape:window-height="987"
     inkscape:window-x="1912"
     inkscape:window-y="18"
     inkscape:window-maximized="1"
     inkscape:current-layer="layer1" /><defs
     id="defs2" /><g
     inkscape:label="Réteg 1"
     inkscape:groupmode="layer"
     id="layer1"
     transform="translate(-73.014124,-158.97703)"><g
       id="user_account_people_man"
       data-name="user, account, people, man"
       transform="matrix(0.26458333,0,0,0.26458333,73.014131,158.97676)"
       style="fill:#1a1a1a"
       inkscape:export-filename="user.svg"
       inkscape:export-xdpi="96"
       inkscape:export-ydpi="96"><path
         id="Path_25"
         data-name="Path 25"
         d="m 17.6,16.087 a 0.67246784,0.67246784 0 1 0 -0.946,0.956 6.01,6.01 0 0 1 1.795,4.3 c 0,0.823 -2.358,2.017 -6.052,2.017 -3.694,0 -6.052,-1.2 -6.052,-2.019 A 6.011,6.011 0 0 1 8.117,17.062 0.67245855,0.67245855 0 1 0 7.166,16.111 7.348,7.348 0 0 0 5,21.345 c 0,2.184 3.811,3.362 7.4,3.362 3.589,0 7.4,-1.178 7.4,-3.362 a 7.343,7.343 0 0 0 -2.2,-5.258 z"
         transform="translate(-5,-7.222)"
         fill="#529b97"
         style="fill:#1a1a1a" /><path
         id="Path_26"
         data-name="Path 26"
         d="M 13.707,12.415 A 4.707,4.707 0 1 0 9,7.707 a 4.707,4.707 0 0 0 4.707,4.708 z m 0,-8.07 a 3.362,3.362 0 1 1 -3.362,3.362 3.362,3.362 0 0 1 3.362,-3.362 z"
         transform="translate(-6.31,-3)"
         fill="#529b97"
         style="fill:#1a1a1a" /></g></g></svg>
